<svg xmlns="http://www.w3.org/2000/svg" width="270" height="104" viewBox="3.988 0 269.819 104" role="img" aria-label="AIMU — AI Modeling Utilities">
  <title>AIMU — AI Modeling Utilities</title>
  <rect x="48.0" y="15" width="22" height="22" rx="5" fill="#6366f1"/>
  <rect x="32.0" y="41" width="22" height="22" rx="5" fill="#818cf8"/>
  <rect x="64.0" y="41" width="22" height="22" rx="5" fill="#818cf8"/>
  <rect x="16.0" y="67" width="22" height="22" rx="5" fill="#14b8a6"/>
  <rect x="48.0" y="67" width="22" height="22" rx="5" fill="#2dd4bf"/>
  <rect x="80.0" y="67" width="22" height="22" rx="5" fill="#14b8a6"/>
    <path d="M49 0 558 1490H958L1480 0H1141L1026 346H497L386 0ZM573 585H947L902 719Q866 833 830.0 966.0Q794 1099 755 1251Q718 1097 684.0 964.0Q650 831 616 719Z" transform="translate(122.000,56) scale(0.022461,-0.022461)" fill="#f1f5f9"/>
    <path d="M440 1490V0H135V1490Z" transform="translate(156.343,56) scale(0.022461,-0.022461)" fill="#f1f5f9"/>
    <path d="M135 0V1490H603L845 806Q860 759 879.0 683.0Q898 607 918.5 519.5Q939 432 956 351Q973 431 993.0 518.5Q1013 606 1032.0 682.0Q1051 758 1066 806L1304 1490H1774V0H1467V703Q1467 759 1469.5 846.0Q1472 933 1474.5 1033.0Q1477 1133 1478 1227Q1453 1127 1425.5 1026.0Q1398 925 1373.0 840.5Q1348 756 1330 703L1083 0H826L575 703Q558 754 533.5 836.0Q509 918 481.0 1016.5Q453 1115 427 1215Q429 1125 431.5 1027.5Q434 930 436.0 844.5Q438 759 438 703V0Z" transform="translate(169.258,56) scale(0.022461,-0.022461)" fill="#f1f5f9"/>
    <path d="M750 -21Q564 -21 426.0 47.0Q288 115 211.5 237.5Q135 360 135 523V1490H440V548Q440 418 524.5 333.5Q609 249 750 249Q890 249 974.5 333.5Q1059 418 1059 548V1490H1365V523Q1365 360 1287.5 237.5Q1210 115 1072.0 47.0Q934 -21 750 -21Z" transform="translate(212.113,56) scale(0.022461,-0.022461)" fill="#f1f5f9"/>
    <path d="M52 0 593 1490H813L1361 0H1161L1012 416H398L254 0ZM456 582H953L845 884Q818 959 784.0 1067.5Q750 1176 702 1338Q655 1173 620.0 1063.0Q585 953 561 884Z" transform="translate(122.000,80) scale(0.007324,-0.007324)" fill="#94a3b8"/>
    <path d="M370 1490V0H180V1490Z" transform="translate(132.349,80) scale(0.007324,-0.007324)" fill="#94a3b8"/>
    <path d="M180 0V1490H450L817 550Q838 496 869.0 399.0Q900 302 927 211Q953 299 984.0 396.5Q1015 494 1037 550L1399 1490H1670V0H1483V851Q1483 933 1485.0 1052.0Q1487 1171 1490 1287Q1449 1159 1407.5 1038.0Q1366 917 1340 851L1007 0H842L504 851Q479 914 438.5 1033.5Q398 1153 354 1284Q356 1178 358.5 1057.5Q361 937 361 851V0Z" transform="translate(140.596,80) scale(0.007324,-0.007324)" fill="#94a3b8"/>
    <path d="M613 -24Q461 -24 346.5 48.0Q232 120 168.0 250.0Q104 380 104 552Q104 727 168.0 857.5Q232 988 346.5 1060.0Q461 1132 613 1132Q766 1132 881.0 1060.0Q996 988 1060.0 857.5Q1124 727 1124 552Q1124 380 1060.0 250.0Q996 120 881.0 48.0Q766 -24 613 -24ZM613 137Q726 137 799.0 195.0Q872 253 907.0 347.5Q942 442 942 552Q942 663 907.0 758.5Q872 854 799.0 912.5Q726 971 613 971Q501 971 429.0 912.5Q357 854 322.0 759.0Q287 664 287 552Q287 442 322.0 347.5Q357 253 429.0 195.0Q501 137 613 137Z" transform="translate(154.146,80) scale(0.007324,-0.007324)" fill="#94a3b8"/>
    <path d="M577 -24Q438 -24 331.0 47.0Q224 118 164.0 248.0Q104 378 104 556Q104 733 164.5 862.5Q225 992 332.0 1062.0Q439 1132 578 1132Q687 1132 751.0 1096.0Q815 1060 849.5 1014.5Q884 969 902 939H916V1490H1096V0H922V173H902Q884 142 848.5 95.5Q813 49 748.5 12.5Q684 -24 577 -24ZM604 137Q756 137 837.0 254.0Q918 371 918 558Q918 743 838.5 857.0Q759 971 604 971Q498 971 427.5 916.0Q357 861 322.0 767.5Q287 674 287 558Q287 441 322.5 345.5Q358 250 429.0 193.5Q500 137 604 137Z" transform="translate(163.140,80) scale(0.007324,-0.007324)" fill="#94a3b8"/>
    <path d="M628 -24Q466 -24 348.5 48.0Q231 120 167.5 249.0Q104 378 104 550Q104 722 166.0 853.0Q228 984 341.5 1058.0Q455 1132 607 1132Q696 1132 782.5 1102.5Q869 1073 939.5 1007.5Q1010 942 1052.0 835.0Q1094 728 1094 573V498H286Q293 323 386.5 229.5Q480 136 629 136Q728 136 799.5 179.5Q871 223 902 308L1076 260Q1037 133 918.5 54.5Q800 -24 628 -24ZM287 650H911Q898 793 821.5 882.5Q745 972 607 972Q511 972 441.5 927.0Q372 882 332.0 809.0Q292 736 287 650Z" transform="translate(172.325,80) scale(0.007324,-0.007324)" fill="#94a3b8"/>
    <path d="M338 1490V0H158V1490Z" transform="translate(181.070,80) scale(0.007324,-0.007324)" fill="#94a3b8"/>
    <path d="M158 0V1118H338V0ZM249 1301Q198 1301 161.0 1336.0Q124 1371 124 1420Q124 1470 161.0 1504.5Q198 1539 249 1539Q301 1539 338.0 1504.5Q375 1470 375 1420Q375 1371 338.0 1336.0Q301 1301 249 1301Z" transform="translate(184.703,80) scale(0.007324,-0.007324)" fill="#94a3b8"/>
    <path d="M338 670V0H158V1118H331L332 911Q386 1030 473.5 1081.0Q561 1132 674 1132Q844 1132 948.0 1027.0Q1052 922 1052 710V0H872V695Q872 824 804.5 897.0Q737 970 620 970Q499 970 418.5 891.5Q338 813 338 670Z" transform="translate(188.335,80) scale(0.007324,-0.007324)" fill="#94a3b8"/>
    <path d="M611 -442Q425 -442 314.0 -374.0Q203 -306 151 -214L297 -120Q321 -152 356.5 -191.0Q392 -230 452.5 -257.5Q513 -285 611 -285Q745 -285 831.5 -221.0Q918 -157 918 -19V205H901Q882 173 847.5 129.0Q813 85 748.5 51.5Q684 18 576 18Q442 18 335.0 81.5Q228 145 166.0 267.0Q104 389 104 564Q104 737 165.0 864.5Q226 992 333.5 1062.0Q441 1132 580 1132Q688 1132 752.5 1096.5Q817 1061 852.0 1015.0Q887 969 906 939H923V1118H1098V-29Q1098 -173 1033.0 -264.5Q968 -356 857.5 -399.0Q747 -442 611 -442ZM606 178Q758 178 839.0 281.5Q920 385 920 568Q920 746 840.5 858.5Q761 971 606 971Q500 971 429.0 916.5Q358 862 322.5 771.0Q287 680 287 568Q287 396 368.0 287.0Q449 178 606 178Z" transform="translate(197.198,80) scale(0.007324,-0.007324)" fill="#94a3b8"/>
    <path d="M763 -24Q587 -24 455.5 45.0Q324 114 252.0 234.0Q180 354 180 507V1490H370V522Q370 415 417.5 331.5Q465 248 553.0 200.0Q641 152 763 152Q885 152 972.5 200.0Q1060 248 1107.0 331.5Q1154 415 1154 522V1490H1344V507Q1344 354 1272.0 234.0Q1200 114 1069.5 45.0Q939 -24 763 -24Z" transform="translate(210.616,80) scale(0.007324,-0.007324)" fill="#94a3b8"/>
    <path d="M598 1118V964H368V290Q368 215 398.5 180.5Q429 146 500 146Q517 146 543.5 150.0Q570 154 592 158L629 6Q601 -4 565.5 -9.0Q530 -14 495 -14Q350 -14 269.0 62.5Q188 139 188 276V964H20V1118H188V1384H368V1118Z" transform="translate(221.778,80) scale(0.007324,-0.007324)" fill="#94a3b8"/>
    <path d="M158 0V1118H338V0ZM249 1301Q198 1301 161.0 1336.0Q124 1371 124 1420Q124 1470 161.0 1504.5Q198 1539 249 1539Q301 1539 338.0 1504.5Q375 1470 375 1420Q375 1371 338.0 1336.0Q301 1301 249 1301Z" transform="translate(226.685,80) scale(0.007324,-0.007324)" fill="#94a3b8"/>
    <path d="M338 1490V0H158V1490Z" transform="translate(230.318,80) scale(0.007324,-0.007324)" fill="#94a3b8"/>
    <path d="M158 0V1118H338V0ZM249 1301Q198 1301 161.0 1336.0Q124 1371 124 1420Q124 1470 161.0 1504.5Q198 1539 249 1539Q301 1539 338.0 1504.5Q375 1470 375 1420Q375 1371 338.0 1336.0Q301 1301 249 1301Z" transform="translate(233.951,80) scale(0.007324,-0.007324)" fill="#94a3b8"/>
    <path d="M598 1118V964H368V290Q368 215 398.5 180.5Q429 146 500 146Q517 146 543.5 150.0Q570 154 592 158L629 6Q601 -4 565.5 -9.0Q530 -14 495 -14Q350 -14 269.0 62.5Q188 139 188 276V964H20V1118H188V1384H368V1118Z" transform="translate(237.583,80) scale(0.007324,-0.007324)" fill="#94a3b8"/>
    <path d="M158 0V1118H338V0ZM249 1301Q198 1301 161.0 1336.0Q124 1371 124 1420Q124 1470 161.0 1504.5Q198 1539 249 1539Q301 1539 338.0 1504.5Q375 1470 375 1420Q375 1371 338.0 1336.0Q301 1301 249 1301Z" transform="translate(242.491,80) scale(0.007324,-0.007324)" fill="#94a3b8"/>
    <path d="M628 -24Q466 -24 348.5 48.0Q231 120 167.5 249.0Q104 378 104 550Q104 722 166.0 853.0Q228 984 341.5 1058.0Q455 1132 607 1132Q696 1132 782.5 1102.5Q869 1073 939.5 1007.5Q1010 942 1052.0 835.0Q1094 728 1094 573V498H286Q293 323 386.5 229.5Q480 136 629 136Q728 136 799.5 179.5Q871 223 902 308L1076 260Q1037 133 918.5 54.5Q800 -24 628 -24ZM287 650H911Q898 793 821.5 882.5Q745 972 607 972Q511 972 441.5 927.0Q372 882 332.0 809.0Q292 736 287 650Z" transform="translate(246.124,80) scale(0.007324,-0.007324)" fill="#94a3b8"/>
    <path d="M538 -24Q366 -24 252.0 51.0Q138 126 108 271L279 312Q303 220 369.5 177.0Q436 134 536 134Q653 134 722.5 184.0Q792 234 792 303Q792 418 628 457L442 501Q142 572 142 806Q142 902 196.0 975.5Q250 1049 343.5 1090.5Q437 1132 556 1132Q729 1132 824.5 1056.5Q920 981 958 863L795 821Q772 881 718.5 930.0Q665 979 557 979Q457 979 390.5 933.0Q324 887 324 817Q324 755 369.0 717.5Q414 680 512 657L681 617Q833 581 906.0 505.5Q979 430 979 315Q979 217 923.5 140.5Q868 64 768.5 20.0Q669 -24 538 -24Z" transform="translate(254.869,80) scale(0.007324,-0.007324)" fill="#94a3b8"/>
</svg>
